<svg width="40" height="40" viewBox="0 0 40 40" fill="none" xmlns="http://www.w3.org/2000/svg">
<path d="M36.5843 30H3.41553C4.25174 21.5778 11.3577 15 19.9999 15C28.6422 15 35.7481 21.5778 36.5843 30Z" fill="#333333" stroke="#333333" stroke-width="2.66667" stroke-linejoin="round"/>
<path d="M11.6668 16.6667L8.3335 10.8334" stroke="#333333" stroke-width="2.66667" stroke-linecap="round" stroke-linejoin="round"/>
<path d="M27.5 16.6667L30.8333 10.8334" stroke="#333333" stroke-width="2.66667" stroke-linecap="round" stroke-linejoin="round"/>
<path d="M12.5002 25.8333C13.4206 25.8333 14.1668 25.0871 14.1668 24.1667C14.1668 23.2462 13.4206 22.5 12.5002 22.5C11.5797 22.5 10.8335 23.2462 10.8335 24.1667C10.8335 25.0871 11.5797 25.8333 12.5002 25.8333Z" fill="white"/>
<path d="M27.5002 25.8333C28.4206 25.8333 29.1668 25.0871 29.1668 24.1667C29.1668 23.2462 28.4206 22.5 27.5002 22.5C26.5797 22.5 25.8335 23.2462 25.8335 24.1667C25.8335 25.0871 26.5797 25.8333 27.5002 25.8333Z" fill="white"/>
</svg>
