<svg width="40" height="40" viewBox="0 0 40 40" fill="none" xmlns="http://www.w3.org/2000/svg">
<path d="M19.9409 11.545C19.9956 10.0573 20.4136 8.75059 21.185 7.65823C21.9603 6.56033 23.2421 5.78043 24.9965 5.3385C25.0082 5.39253 25.0203 5.44659 25.0329 5.50044V5.78311C25.0329 6.42407 24.8775 7.15904 24.5706 7.96747C24.249 8.75023 23.7464 9.48695 23.0789 10.1518C22.4545 10.7377 21.8769 11.1256 21.3665 11.3009C21.1979 11.3512 20.9669 11.4008 20.6878 11.4454C20.4396 11.484 20.1906 11.5173 19.9409 11.545Z" fill="#333333"/>
<path d="M20.2336 13.7526C18.2518 13.7526 16.8759 11.9999 14.921 11.9999C12.9662 11.9999 8.93896 13.7967 8.93896 19.9999C8.93896 26.2031 12.5152 30.1999 12.9152 30.6665C13.3152 31.1333 14.2402 32.3329 15.6734 32.3329C17.1066 32.3329 18.6756 31.1934 20.2336 31.1934C21.7916 31.1934 23.7527 32.3329 25.033 32.3329C26.3132 32.3329 26.8398 31.8109 27.7112 30.9107C28.5824 30.0105 30.2444 27.2634 30.8248 25.6146C29.8688 25.0455 27.3349 23.5007 27.3349 19.9999C27.3349 17.6661 28.1878 15.7272 29.8936 14.1834C28.7745 12.7277 27.4766 11.9999 25.9999 11.9999C23.7848 11.9999 22.2154 13.7526 20.2336 13.7526Z" fill="#333333" stroke="#333333" stroke-width="2.66667" stroke-linejoin="round"/>
</svg>
