<svg width="40" height="40" viewBox="0 0 40 40" fill="none" xmlns="http://www.w3.org/2000/svg">
<rect x="8" y="9" width="24" height="16" fill="#333333" stroke="#333333" stroke-width="2.66667" stroke-linejoin="round"/>
<rect x="8" y="30" width="24" height="1" fill="#333333" stroke="#333333" stroke-width="2" stroke-linejoin="round"/>
<path d="M20.0215 14.2687C20.0415 13.7249 20.1943 13.2472 20.4762 12.8479C20.7596 12.4466 21.2282 12.1615 21.8695 12C21.8737 12.0197 21.8782 12.0395 21.8828 12.0592V12.1625C21.8828 12.3968 21.826 12.6655 21.7138 12.961C21.5962 13.2471 21.4125 13.5164 21.1685 13.7594C20.9403 13.9736 20.7292 14.1154 20.5426 14.1795C20.481 14.1979 20.3965 14.216 20.2945 14.2323C20.2038 14.2464 20.1127 14.2586 20.0215 14.2687Z" fill="white"/>
<path d="M20.1286 15.0756C19.4042 15.0756 18.9012 14.4349 18.1866 14.4349C17.4721 14.4349 16 15.0917 16 17.3592C16 19.6267 17.3072 21.0877 17.4535 21.2582C17.5996 21.4288 17.9378 21.8673 18.4617 21.8673C18.9855 21.8673 19.5591 21.4508 20.1286 21.4508C20.6981 21.4508 21.4149 21.8673 21.8829 21.8673C22.3509 21.8673 22.5434 21.6766 22.8619 21.3475C23.1804 21.0184 23.7878 20.0143 24 19.4116C23.6505 19.2036 22.7243 18.6389 22.7243 17.3592C22.7243 16.5061 23.0361 15.7974 23.6596 15.2331C23.2506 14.701 22.7761 14.4349 22.2363 14.4349C21.4266 14.4349 20.853 15.0756 20.1286 15.0756Z" fill="white" stroke="white" stroke-width="0.5" stroke-linejoin="round"/>
</svg>
